<svg xmlns="http://www.w3.org/2000/svg" viewBox="0 0 64 64" role="img" aria-label="Decision Spinner favicon">
  <defs>
    <linearGradient id="bg" x1="0" y1="0" x2="1" y2="1">
      <stop offset="0%" stop-color="#d9ff4f"/>
      <stop offset="100%" stop-color="#6bf3ff"/>
    </linearGradient>
  </defs>
  <rect width="64" height="64" rx="14" fill="url(#bg)"/>
  <circle cx="32" cy="34" r="20" fill="#fff9ed" stroke="#182033" stroke-width="3"/>
  <path d="M32 34 L32 14 A20 20 0 0 1 49.3 24 Z" fill="#ff5da2"/>
  <path d="M32 34 L49.3 24 A20 20 0 0 1 50 44 Z" fill="#57a6ff"/>
  <path d="M32 34 L50 44 A20 20 0 0 1 34 54 Z" fill="#72f1a7"/>
  <path d="M32 34 L34 54 A20 20 0 0 1 15 45 Z" fill="#ffe347"/>
  <path d="M32 34 L15 45 A20 20 0 0 1 14.5 24 Z" fill="#ff8a5b"/>
  <path d="M32 34 L14.5 24 A20 20 0 0 1 32 14 Z" fill="#8b7bff"/>
  <circle cx="32" cy="34" r="3.8" fill="#182033"/>
  <path d="M32 7 L39 7 L34 16 Z" fill="#ff5da2" stroke="#182033" stroke-width="1.5"/>
</svg>
